<svg height="365pt" viewBox="0 0 365.46731 365" width="365pt" xmlns="http://www.w3.org/2000/svg"><path d="m273.585938 303.566406c32.21875-28.753906 52.507812-70.601562 52.507812-117.1875 0-86.714844-70.296875-157.011718-157.011719-157.011718-29.871093 0-57.792969 8.34375-81.566406 22.824218 7.613281-1.523437 15.480469-2.34375 23.539063-2.34375 65.980468 0 119.464843 53.488282 119.464843 119.464844 0 65.980469-53.484375 119.46875-119.464843 119.46875-32.414063 0-61.769532-12.957031-83.292969-33.914062 25.441406 52.398437 79.15625 88.527343 141.320312 88.527343 24.601563 0 47.882813-5.660156 68.613281-15.746093" fill="#00e7ff"/><path d="m169.082031 350.21875c-63.289062 0-119.792969-35.390625-147.460937-92.367188-1.449219-2.984374-.546875-6.578124 2.140625-8.515624 2.679687-1.949219 6.386719-1.679688 8.757812.640624 21.1875 20.621094 49.074219 31.976563 78.535157 31.976563 62.105468 0 112.640624-50.527344 112.640624-112.640625 0-62.109375-50.535156-112.636719-112.640624-112.636719-7.386719 0-14.855469.742188-22.195313 2.207031-3.265625.636719-6.492187-1.117187-7.699219-4.210937-1.207031-3.085937-.019531-6.585937 2.808594-8.3125 25.578125-15.582031 55.011719-23.820313 85.113281-23.820313 90.339844 0 163.839844 73.5 163.839844 163.839844 0 46.632813-19.96875 91.203125-54.789063 122.28125-2.808593 2.507813-7.125 2.269532-9.640624-.546875-2.511719-2.8125-2.265626-7.128906.546874-9.640625 31.921876-28.484375 50.226563-69.339844 50.226563-112.09375 0-82.8125-67.371094-150.183594-150.183594-150.183594-15.890625 0-31.566406 2.5-46.488281 7.347657 64.246094 5.847656 114.753906 60.023437 114.753906 125.769531 0 69.640625-56.652344 126.292969-126.292968 126.292969-20.675782 0-40.660157-4.984375-58.542969-14.386719 28.101562 34.769531 70.367187 55.347656 116.570312 55.347656 23.011719 0 45.09375-5.066406 65.625-15.058594 3.394531-1.644531 7.472657-.234374 9.128907 3.152344 1.644531 3.390625.238281 7.476563-3.15625 9.128906-22.40625 10.902344-46.5 16.429688-71.597657 16.429688zm0 0" fill="#602f75"/><g fill="#ffe600"><path d="m6.828125 140.421875c-1.746094 0-3.496094-.667969-4.828125-2.003906-2.664062-2.664063-2.664062-6.984375 0-9.652344l24.136719-24.132813c2.664062-2.664062 6.984375-2.664062 9.652343 0 2.664063 2.664063 2.664063 6.988282 0 9.652344l-24.136718 24.132813c-1.332032 1.335937-3.078125 2.003906-4.824219 2.003906zm0 0"/><path d="m30.960938 140.421875c-1.746094 0-3.496094-.667969-4.828126-2.003906l-24.132812-24.132813c-2.667969-2.664062-2.667969-6.988281 0-9.652344 2.664062-2.664062 6.988281-2.664062 9.652344 0l24.132812 24.132813c2.667969 2.667969 2.667969 6.988281 0 9.652344-1.332031 1.335937-3.078125 2.003906-4.824218 2.003906zm0 0"/><path d="m334.507812 38.019531c-1.746093 0-3.492187-.667969-4.828124-2-2.664063-2.664062-2.664063-6.988281 0-9.652343l24.136718-24.132813c2.664063-2.667969 6.984375-2.667969 9.652344 0 2.664062 2.664063 2.664062 6.984375 0 9.652344l-24.136719 24.132812c-1.332031 1.335938-3.078125 2-4.824219 2zm0 0"/><path d="m358.640625 38.019531c-1.746094 0-3.496094-.667969-4.828125-2l-24.132812-24.132812c-2.667969-2.667969-2.667969-6.988281 0-9.652344 2.664062-2.667969 6.988281-2.667969 9.652343 0l24.132813 24.132813c2.667968 2.664062 2.667968 6.988281 0 9.652343-1.332032 1.335938-3.078125 2-4.824219 2zm0 0"/><path d="m334.507812 365.699219c-1.746093 0-3.492187-.667969-4.828124-2-2.664063-2.664063-2.664063-6.988281 0-9.652344l24.136718-24.132813c2.664063-2.667968 6.984375-2.667968 9.652344 0 2.664062 2.664063 2.664062 6.984376 0 9.652344l-24.136719 24.132813c-1.332031 1.335937-3.078125 2-4.824219 2zm0 0"/><path d="m358.640625 365.699219c-1.746094 0-3.496094-.667969-4.828125-2l-24.132812-24.132813c-2.667969-2.667968-2.667969-6.988281 0-9.652344 2.664062-2.667968 6.988281-2.667968 9.652343 0l24.132813 24.132813c2.667968 2.664063 2.667968 6.988281 0 9.652344-1.332032 1.335937-3.078125 2-4.824219 2zm0 0"/></g><path d="m288.6875 157.332031c-3.113281 0-5.929688-2.140625-6.648438-5.304687-4.273437-18.664063-13.046874-36.34375-25.378906-51.132813-2.421875-2.894531-2.027344-7.199219.867188-9.617187 2.914062-2.414063 7.207031-2.023438 9.613281.871094 13.707031 16.429687 23.460937 36.085937 28.207031 56.835937.839844 3.675781-1.457031 7.335937-5.136718 8.175781-.511719.117188-1.015626.171875-1.523438.171875zm0 0" fill="#ea3457"/><path d="m291.960938 186.378906c-3.773438 0-6.828126-3.054687-6.828126-6.824218 0-1.425782.039063-2.332032.074219-3.105469.039063-.90625.074219-1.570313-.054687-3.203125-.285156-3.757813 2.527344-7.039063 6.289062-7.324219 3.726563-.261719 7.039063 2.523437 7.328125 6.285156.183594 2.472657.136719 3.480469.078125 4.855469-.027344.621094-.0625 1.347656-.0625 2.492188 0 3.769531-3.050781 6.824218-6.824218 6.824218zm0 0" fill="#ea3457"/></svg>