<svg height="418pt" viewBox="0 0 418.01387 418" width="418pt" xmlns="http://www.w3.org/2000/svg"><path d="m135.851562 94.730469-64.195312-34.121094 27.351562 69c9.988282-13.8125 22.46875-25.660156 36.84375-34.878906zm0 0" fill="#00e7ff"/><path d="m99.007812 136.4375c-.28125 0-.558593-.019531-.847656-.054688-2.472656-.308593-4.582031-1.941406-5.5-4.257812l-27.351562-68.996094c-1.054688-2.660156-.339844-5.699218 1.792968-7.605468 2.132813-1.910157 5.226563-2.277344 7.757813-.941407l64.203125 34.117188c2.136719 1.136719 3.511719 3.324219 3.613281 5.746093.097657 2.425782-1.097656 4.71875-3.136719 6.027344-13.664062 8.769532-25.445312 19.914063-35 33.132813-1.292968 1.789062-3.359374 2.832031-5.53125 2.832031zm-14.167968-61.089844 16.148437 40.734375c6.546875-7.621093 13.839844-14.488281 21.816407-20.554687zm0 0" fill="#602f75"/><path d="m73.214844 209.011719c0-7.402344.753906-14.617188 1.894531-21.699219l-68.28125 25.113281 69.5625 25.585938c-2.035156-9.351563-3.175781-19.039063-3.175781-29zm0 0" fill="#00e7ff"/><path d="m76.394531 244.839844c-.792969 0-1.589843-.136719-2.355469-.421875l-69.566406-25.585938c-2.6875-.984375-4.472656-3.546875-4.472656-6.40625s1.785156-5.421875 4.472656-6.40625l68.28125-25.113281c2.253906-.839844 4.820313-.410156 6.691406 1.136719 1.875 1.542969 2.789063 3.957031 2.402344 6.351562-1.214844 7.554688-1.808594 14.296875-1.808594 20.617188 0 9.078125 1.019532 18.347656 3.019532 27.546875.535156 2.433594-.304688 4.964844-2.179688 6.601562-1.265625 1.097656-2.867187 1.679688-4.484375 1.679688zm-49.792969-32.414063 41.023438 15.089844c-.824219-6.195313-1.238281-12.382813-1.238281-18.503906 0-3.675781.171875-7.460938.53125-11.414063zm0 0" fill="#602f75"/><path d="m99.007812 288.417969-27.351562 68.992187 64.195312-34.117187c-14.375-9.21875-26.855468-21.0625-36.84375-34.875zm0 0" fill="#00e7ff"/><path d="m71.65625 364.238281c-1.640625 0-3.273438-.59375-4.554688-1.742187-2.132812-1.90625-2.847656-4.941406-1.792968-7.601563l27.351562-68.996093c.917969-2.316407 3.027344-3.949219 5.5-4.257813 2.507813-.320313 4.921875.757813 6.378906 2.773437 9.5625 13.226563 21.335938 24.375 35 33.132813 2.039063 1.3125 3.234376 3.605469 3.136719 6.027344-.101562 2.421875-1.476562 4.609375-3.613281 5.75l-64.203125 34.117187c-1.011719.535156-2.113281.796875-3.203125.796875zm29.332031-62.296875-16.148437 40.734375 37.964844-20.175781c-7.976563-6.066406-15.269532-12.9375-21.816407-20.558594zm0 0" fill="#602f75"/><path d="m209.007812 344.804688c-9.960937 0-19.648437-1.140626-29-3.175782l25.585938 69.5625 25.113281-68.28125c-7.085937 1.140625-14.296875 1.894532-21.699219 1.894532zm0 0" fill="#00e7ff"/><path d="m205.59375 418.019531c-2.859375 0-5.421875-1.785156-6.40625-4.46875l-25.585938-69.570312c-.859374-2.339844-.382812-4.957031 1.257813-6.839844 1.628906-1.875 4.132813-2.722656 6.601563-2.183594 9.210937 2.003907 18.476562 3.019531 27.546874 3.019531 6.3125 0 13.058594-.589843 20.613282-1.804687 2.417968-.386719 4.8125.527344 6.351562 2.398437 1.546875 1.875 1.980469 4.421876 1.140625 6.695313l-25.113281 68.28125c-.984375 2.6875-3.546875 4.472656-6.40625 4.472656zm-15.085938-67.628906 15.085938 41.023437 14.828125-40.316406c-10.542969.945313-19.996094.605469-29.914063-.707031zm0 0" fill="#602f75"/><path d="m319.003906 288.417969c-9.988281 13.8125-22.46875 25.65625-36.84375 34.878906l64.199219 34.117187zm0 0" fill="#00e7ff"/><path d="m346.359375 364.238281c-1.09375 0-2.191406-.261719-3.207031-.796875l-64.199219-34.117187c-2.140625-1.140625-3.515625-3.324219-3.613281-5.75-.097656-2.421875 1.09375-4.714844 3.132812-6.023438 13.667969-8.761719 25.441406-19.90625 35-33.132812 1.460938-2.019531 3.878906-3.097657 6.378906-2.773438 2.476563.304688 4.582032 1.9375 5.503907 4.253907l27.351562 68.996093c1.050781 2.664063.339844 5.699219-1.792969 7.605469-1.28125 1.144531-2.914062 1.738281-4.554687 1.738281zm-51.152344-41.738281 37.964844 20.175781-16.144531-40.734375c-6.546875 7.621094-13.839844 14.492188-21.820313 20.558594zm0 0" fill="#602f75"/><path d="m411.183594 205.597656-69.5625-25.582031c2.035156 9.347656 3.179687 19.035156 3.179687 28.996094 0 7.402343-.753906 14.617187-1.894531 21.699219zm0 0" fill="#00e7ff"/><path d="m342.90625 237.539062c-1.558594 0-3.097656-.53125-4.339844-1.554687-1.875-1.542969-2.785156-3.960937-2.398437-6.355469 1.210937-7.554687 1.808593-14.296875 1.808593-20.617187 0-9.078125-1.023437-18.347657-3.023437-27.546875-.53125-2.433594.308594-4.964844 2.179687-6.601563 1.886719-1.636719 4.507813-2.113281 6.839844-1.257812l69.566406 25.585937c2.6875.988282 4.476563 3.546875 4.476563 6.40625 0 2.863282-1.789063 5.421875-4.476563 6.40625l-68.277343 25.117188c-.761719.28125-1.5625.417968-2.355469.417968zm7.480469-47.03125c.828125 6.199219 1.242187 12.382813 1.242187 18.503907 0 3.675781-.175781 7.460937-.535156 11.417969l40.320312-14.832032zm0 0" fill="#602f75"/><path d="m282.160156 94.730469c14.375 9.21875 26.855469 21.066406 36.84375 34.878906l27.355469-69zm0 0" fill="#00e7ff"/><path d="m319.007812 136.4375c-2.171874 0-4.242187-1.039062-5.535156-2.828125-9.554687-13.21875-21.332031-24.367187-35-33.132813-2.039062-1.3125-3.234375-3.601562-3.132812-6.027343.101562-2.421875 1.472656-4.609375 3.613281-5.75l64.199219-34.113281c2.53125-1.339844 5.621094-.972657 7.761718.941406 2.132813 1.90625 2.84375 4.945312 1.792969 7.605468l-27.351562 68.996094c-.921875 2.316406-3.027344 3.949219-5.503907 4.257813-.285156.03125-.566406.050781-.84375.050781zm-23.800781-40.910156c7.980469 6.066406 15.273438 12.933594 21.820313 20.554687l16.144531-40.734375zm0 0" fill="#602f75"/><path d="m209.007812 73.21875c9.960938 0 19.644532 1.140625 28.996094 3.179688l-25.582031-69.566407-25.113281 68.28125c7.082031-1.140625 14.292968-1.894531 21.699218-1.894531zm0 0" fill="#00e7ff"/><path d="m238.007812 83.226562c-.480468 0-.96875-.050781-1.457031-.15625-9.210937-2.007812-18.476562-3.023437-27.546875-3.023437-6.3125 0-13.058594.589844-20.613281 1.808594-2.433594.378906-4.8125-.527344-6.351563-2.402344-1.546874-1.875-1.980468-4.417969-1.140624-6.695313l25.113281-68.28125c.988281-2.6875 3.546875-4.4687495 6.40625-4.4687495s5.421875 1.7812495 6.40625 4.4687495l25.585937 69.566407c.863282 2.339843.382813 4.960937-1.257812 6.839843-1.304688 1.507813-3.191406 2.34375-5.144532 2.34375zm-29-16.832031c6.113282 0 12.300782.414063 18.5 1.238281l-15.085937-41.023437-14.828125 40.316406c3.953125-.355469 7.742188-.53125 11.414062-.53125zm0 0" fill="#602f75"/><path d="m146.027344 302.417969c-29.960938-20.246094-49.660156-54.523438-49.660156-93.40625 0-62.210938 50.429687-112.640625 112.640624-112.640625 62.207032 0 112.640626 50.429687 112.640626 112.640625 0 62.210937-50.433594 112.640625-112.640626 112.640625-7.152343 0-14.152343-.667969-20.933593-1.941406" fill="#ffe600"/><path d="m209.007812 328.480469c-7.460937 0-14.925781-.695313-22.195312-2.058594-3.707031-.695313-6.144531-4.261719-5.445312-7.96875.691406-3.707031 4.289062-6.132813 7.96875-5.449219 6.4375 1.207032 13.058593 1.820313 19.671874 1.820313 58.347657 0 105.8125-47.464844 105.8125-105.8125 0-58.347657-47.464843-105.8125-105.8125-105.8125-58.347656 0-105.8125 47.464843-105.8125 105.8125 0 35.203125 17.4375 68.007812 46.652344 87.746093 3.125 2.109376 3.945313 6.355469 1.832032 9.480469-2.097657 3.121094-6.359376 3.945313-9.472657 1.832031-32.980469-22.28125-52.667969-59.3125-52.667969-99.058593 0-65.875 53.59375-119.464844 119.46875-119.464844 65.871094 0 119.464844 53.589844 119.464844 119.464844s-53.59375 119.46875-119.464844 119.46875zm0 0" fill="#602f75"/><g fill="#ea3457"><path d="m287.5 215.839844c-3.773438 0-6.828125-3.058594-6.828125-6.828125 0-3.039063-.183594-6.054688-.550781-8.949219-.472656-3.738281 2.171875-7.15625 5.914062-7.628906 3.773438-.46875 7.160156 2.175781 7.632813 5.914062.441406 3.464844.660156 7.050782.660156 10.664063 0 3.769531-3.054687 6.828125-6.828125 6.828125zm0 0"/><path d="m278.328125 178.960938c-2.441406 0-4.800781-1.308594-6.035156-3.609376-12.5-23.445312-36.753907-38.007812-63.285157-38.007812-3.773437 0-6.828124-3.058594-6.828124-6.828125s3.054687-6.828125 6.828124-6.828125c31.585938 0 60.453126 17.335938 75.339844 45.234375 1.773438 3.328125.515625 7.464844-2.8125 9.238281-1.027344.546875-2.128906.800782-3.207031.800782zm0 0"/></g></svg>